<svg width="137" height="54" viewBox="0 0 137 54" fill="none" xmlns="http://www.w3.org/2000/svg">
<g filter="url(#filter0_d_93_9343)">
<path d="M47.62 23.9941C48.3615 23.9941 48.9813 24.2742 49.479 24.8341C49.9767 25.3941 50.2257 26.0798 50.2257 26.8913C50.2257 27.3484 50.1699 27.8112 50.0581 28.2799C49.9565 28.7369 49.7737 29.2799 49.5095 29.9084L47.0866 36.1484H44.6333L46.1114 29.2913C45.7863 29.0284 45.5272 28.6855 45.3343 28.2627C45.1413 27.8284 45.0447 27.3655 45.0447 26.8741C45.0447 26.0742 45.2885 25.3941 45.7762 24.8341C46.2739 24.2742 46.8885 23.9941 47.62 23.9941Z" fill="white"/>
</g>
<g filter="url(#filter1_d_93_9343)">
<path d="M44.8154 16.3998C44.8154 15.8169 44.9373 15.2913 45.1811 14.8226C45.425 14.3426 45.7551 13.9655 46.1716 13.6912C46.5983 13.4169 47.0707 13.2798 47.5888 13.2798C48.1272 13.2798 48.6097 13.4169 49.0364 13.6912C49.4631 13.9655 49.7983 14.3426 50.0421 14.8226C50.2859 15.2913 50.4078 15.8169 50.4078 16.3998C50.4078 16.9826 50.2859 17.5199 50.0421 18.0112C49.7983 18.4912 49.4631 18.8684 49.0364 19.1426C48.6097 19.4283 48.1272 19.5712 47.5888 19.5712C47.0707 19.5712 46.5983 19.4283 46.1716 19.1426C45.7551 18.8684 45.425 18.4912 45.1811 18.0112C44.9373 17.5199 44.8154 16.9826 44.8154 16.3998Z" fill="url(#paint0_linear_93_9343)"/>
</g>
<g filter="url(#filter2_d_93_9343)">
<path d="M21.4256 29.5655C21.4256 28.434 21.2275 27.5597 20.8313 26.9426C20.4452 26.3141 19.9221 25.8797 19.2617 25.6397C18.6116 25.3997 17.8903 25.2797 17.0979 25.2797H13.7608V33.5597H16.9608C17.4687 33.5597 17.9817 33.5083 18.4998 33.4055C19.0281 33.3026 19.5106 33.1082 19.9475 32.8226C20.3945 32.537 20.75 32.1311 21.0141 31.6055C21.2884 31.0798 21.4256 30.3997 21.4256 29.5655ZM20.6027 18.8512C20.6027 17.5712 20.2471 16.6627 19.536 16.1255C18.8351 15.5769 17.8649 15.3026 16.6256 15.3026H13.7608V22.6055H16.8694C18.0884 22.6055 19.0129 22.3082 19.6427 21.714C20.2827 21.1198 20.6027 20.1654 20.6027 18.8512ZM24.5951 29.514C24.5951 30.8169 24.3665 31.9027 23.9094 32.7712C23.4624 33.6397 22.8529 34.3312 22.0808 34.8455C21.3189 35.3597 20.4605 35.7311 19.5056 35.9597C18.5608 36.1768 17.5906 36.2855 16.5951 36.2855H10.7437V12.6626H16.1532C17.0979 12.6626 18.0173 12.7597 18.9113 12.954C19.8052 13.1368 20.6078 13.457 21.3189 13.914C22.0402 14.3597 22.6141 14.9711 23.0408 15.7483C23.4675 16.514 23.6808 17.474 23.6808 18.6283C23.6808 19.6226 23.4929 20.474 23.117 21.1826C22.7513 21.8797 22.2738 22.4454 21.6846 22.8797C21.0954 23.3025 20.4656 23.5997 19.7951 23.7712C20.5671 23.9197 21.3189 24.194 22.0503 24.594C22.7919 24.9825 23.4014 25.5712 23.8789 26.3597C24.3564 27.137 24.5951 28.1882 24.5951 29.514ZM28.728 36.2855V33.8512H31.1661V20.6512H28.728V18.2169H33.4061L33.9395 22.4512C34.549 20.954 35.2957 19.8054 36.1795 19.0055C37.0734 18.194 38.2315 17.7883 39.6537 17.7883C40.121 17.7883 40.5324 17.8284 40.888 17.9083C41.2537 17.9882 41.6244 18.0911 42.0004 18.2169L41.1318 21.0969C40.7966 20.9827 40.4918 20.9025 40.2176 20.8569C39.9433 20.8112 39.6282 20.7883 39.2728 20.7883C38.0638 20.7883 37.0277 21.2797 36.1642 22.2626C35.3006 23.2455 34.6099 24.6911 34.0918 26.5997V33.8512H37.3528V36.2855H28.728ZM39.288 24.5597V20.4112L39.6233 18.2169H42.0004L41.5433 24.5597H39.288Z" fill="white"/>
</g>
<g filter="url(#filter3_d_93_9343)">
<path d="M64.2584 10.5542L67.1841 10.9485V36.2856H64.6089L64.3651 33.9713C63.7961 34.8857 63.1257 35.5714 62.3537 36.0285C61.5817 36.4856 60.7384 36.7142 59.8241 36.7142C58.4426 36.7142 57.2998 36.3199 56.3956 35.5313C55.5017 34.7314 54.8361 33.6227 54.3994 32.2056C53.9626 30.7886 53.7441 29.1428 53.7441 27.2685C53.7441 25.44 53.9931 23.817 54.4908 22.3999C54.9988 20.9713 55.7199 19.8456 56.6546 19.0228C57.5994 18.1999 58.7371 17.7885 60.0679 17.7885C60.9518 17.7885 61.739 17.9657 62.4299 18.3199C63.1207 18.6628 63.7302 19.1713 64.2584 19.8456V10.5542ZM60.8299 20.3771C59.5803 20.3771 58.6102 20.9428 57.9194 22.0742C57.2285 23.2056 56.8832 24.9371 56.8832 27.2685C56.8832 28.8113 57.0255 30.0913 57.3099 31.1085C57.5942 32.1257 58.0057 32.88 58.5441 33.3713C59.0826 33.8627 59.7428 34.1085 60.5251 34.1085C61.3683 34.1085 62.0946 33.8342 62.7041 33.2856C63.3238 32.7371 63.8419 32.1028 64.2584 31.3828V22.5542C63.8419 21.8685 63.339 21.3371 62.7499 20.9599C62.1708 20.5714 61.5308 20.3771 60.8299 20.3771ZM85.6409 16.1256L86.4942 19.0399C85.8238 19.2799 85.1024 19.4342 84.3304 19.5028C83.5685 19.5713 82.7253 19.6056 81.8009 19.6056C82.7457 20.0856 83.4567 20.7028 83.9342 21.4571C84.4116 22.2113 84.6504 23.1141 84.6504 24.1656C84.6504 25.3543 84.4015 26.4113 83.9038 27.3371C83.4161 28.2628 82.71 28.9886 81.7857 29.5142C80.8714 30.0398 79.7691 30.3028 78.479 30.3028C77.971 30.3028 77.5392 30.2798 77.1838 30.2342C76.8382 30.177 76.498 30.0913 76.1628 29.9771C75.9392 30.1485 75.7514 30.3827 75.599 30.6799C75.4567 30.9771 75.3857 31.2913 75.3857 31.6228C75.3857 32.0228 75.5278 32.3657 75.8123 32.6513C76.0967 32.9256 76.6504 33.0628 77.4733 33.0628H80.3228C81.43 33.0628 82.4154 33.2798 83.279 33.7142C84.1525 34.1486 84.8382 34.737 85.3361 35.4799C85.8339 36.2228 86.0828 37.0684 86.0828 38.0171C86.0828 39.8113 85.402 41.1885 84.0409 42.1485C82.6796 43.1198 80.7495 43.6056 78.2504 43.6056C76.4828 43.6056 75.091 43.3999 74.0752 42.9885C73.0695 42.5771 72.3533 41.9657 71.9266 41.1542C71.51 40.3427 71.3019 39.3257 71.3019 38.1028H73.938C73.938 38.7771 74.0548 39.3313 74.2885 39.7656C74.522 40.2 74.9487 40.5257 75.5685 40.7428C76.1881 40.9598 77.082 41.0685 78.2504 41.0685C79.4085 41.0685 80.343 40.9598 81.0542 40.7428C81.7653 40.5257 82.2885 40.2056 82.6238 39.7828C82.959 39.36 83.1266 38.8457 83.1266 38.2399C83.1266 37.44 82.8066 36.8284 82.1666 36.4056C81.5266 35.9828 80.7087 35.7713 79.7133 35.7713H76.8942C75.4516 35.7713 74.39 35.4285 73.7095 34.7428C73.039 34.0457 72.7038 33.2456 72.7038 32.3428C72.7038 31.7486 72.851 31.1713 73.1457 30.6113C73.4504 30.0514 73.8923 29.5598 74.4714 29.1371C73.5367 28.5771 72.8459 27.8914 72.399 27.0799C71.962 26.2684 71.7438 25.2799 71.7438 24.1142C71.7438 22.8686 72.018 21.7714 72.5666 20.8228C73.1253 19.8741 73.8973 19.1314 74.8828 18.5942C75.8681 18.057 77.0009 17.7885 78.2809 17.7885C79.6116 17.7885 80.6986 17.7199 81.5419 17.5828C82.3952 17.4343 83.1316 17.2399 83.7514 16.9999C84.3811 16.7486 85.011 16.4571 85.6409 16.1256ZM78.2961 20.1199C77.0973 20.1199 76.2034 20.4971 75.6142 21.2513C75.0249 21.9943 74.7304 22.9485 74.7304 24.1142C74.7304 25.2913 75.03 26.2571 75.6295 27.0113C76.2287 27.7543 77.138 28.1256 78.3571 28.1256C79.4339 28.1256 80.2567 27.777 80.8257 27.0799C81.3944 26.3713 81.679 25.3714 81.679 24.0799C81.679 22.7771 81.3944 21.7941 80.8257 21.1313C80.2567 20.457 79.4135 20.1199 78.2961 20.1199ZM92.4099 28.3656C92.4708 29.6914 92.7095 30.777 93.126 31.6228C93.5426 32.457 94.086 33.0741 94.7565 33.4742C95.427 33.8627 96.1685 34.0571 96.9813 34.0571C97.7838 34.0571 98.5203 33.9199 99.1908 33.6456C99.8613 33.3713 100.542 32.9713 101.233 32.4456L102.558 34.5199C101.807 35.1943 100.938 35.7313 99.9527 36.1313C98.9674 36.5198 97.9464 36.7142 96.8899 36.7142C95.2847 36.7142 93.9184 36.3199 92.7908 35.5313C91.6733 34.7314 90.82 33.6227 90.2308 32.2056C89.6518 30.7886 89.3622 29.1428 89.3622 27.2685C89.3622 25.4513 89.6518 23.8286 90.2308 22.3999C90.82 20.9713 91.6479 19.8456 92.7146 19.0228C93.7813 18.1999 95.0512 17.7885 96.5241 17.7885C97.9057 17.7885 99.0942 18.1485 100.09 18.8685C101.096 19.5885 101.868 20.6171 102.406 21.9542C102.945 23.28 103.214 24.8685 103.214 26.7199C103.214 27.0285 103.209 27.3257 103.198 27.6113C103.188 27.897 103.173 28.1486 103.153 28.3656H92.4099ZM96.5546 20.3599C95.4169 20.3599 94.467 20.817 93.7051 21.7313C92.9533 22.6457 92.5217 24.057 92.4099 25.9656H100.395C100.364 24.1371 100.009 22.7486 99.3279 21.7999C98.6575 20.8399 97.7331 20.3599 96.5546 20.3599Z" fill="white"/>
</g>
<g filter="url(#filter4_d_93_9343)">
<path d="M108.002 11.0952H112.843L116.761 19.747L120.728 11.0952H125.439L119.352 22.6613L126.054 36.2856H121.213L116.696 26.0491L112.195 36.2856H107.468L114.073 22.8981L108.002 11.0952Z" fill="url(#paint1_linear_93_9343)"/>
</g>
<defs>
<filter id="filter0_d_93_9343" x="34.6333" y="13.9941" width="25.5923" height="32.1543" filterUnits="userSpaceOnUse" color-interpolation-filters="sRGB">
<feFlood flood-opacity="0" result="BackgroundImageFix"/>
<feColorMatrix in="SourceAlpha" type="matrix" values="0 0 0 0 0 0 0 0 0 0 0 0 0 0 0 0 0 0 127 0" result="hardAlpha"/>
<feOffset/>
<feGaussianBlur stdDeviation="5"/>
<feComposite in2="hardAlpha" operator="out"/>
<feColorMatrix type="matrix" values="0 0 0 0 1 0 0 0 0 1 0 0 0 0 1 0 0 0 0.25 0"/>
<feBlend mode="normal" in2="BackgroundImageFix" result="effect1_dropShadow_93_9343"/>
<feBlend mode="normal" in="SourceGraphic" in2="effect1_dropShadow_93_9343" result="shape"/>
</filter>
<filter id="filter1_d_93_9343" x="34.8154" y="3.27979" width="25.5923" height="26.2915" filterUnits="userSpaceOnUse" color-interpolation-filters="sRGB">
<feFlood flood-opacity="0" result="BackgroundImageFix"/>
<feColorMatrix in="SourceAlpha" type="matrix" values="0 0 0 0 0 0 0 0 0 0 0 0 0 0 0 0 0 0 127 0" result="hardAlpha"/>
<feOffset/>
<feGaussianBlur stdDeviation="5"/>
<feComposite in2="hardAlpha" operator="out"/>
<feColorMatrix type="matrix" values="0 0 0 0 1 0 0 0 0 1 0 0 0 0 1 0 0 0 0.25 0"/>
<feBlend mode="normal" in2="BackgroundImageFix" result="effect1_dropShadow_93_9343"/>
<feBlend mode="normal" in="SourceGraphic" in2="effect1_dropShadow_93_9343" result="shape"/>
</filter>
<filter id="filter2_d_93_9343" x="0.743652" y="2.6626" width="51.2568" height="43.623" filterUnits="userSpaceOnUse" color-interpolation-filters="sRGB">
<feFlood flood-opacity="0" result="BackgroundImageFix"/>
<feColorMatrix in="SourceAlpha" type="matrix" values="0 0 0 0 0 0 0 0 0 0 0 0 0 0 0 0 0 0 127 0" result="hardAlpha"/>
<feOffset/>
<feGaussianBlur stdDeviation="5"/>
<feComposite in2="hardAlpha" operator="out"/>
<feColorMatrix type="matrix" values="0 0 0 0 1 0 0 0 0 1 0 0 0 0 1 0 0 0 0.25 0"/>
<feBlend mode="normal" in2="BackgroundImageFix" result="effect1_dropShadow_93_9343"/>
<feBlend mode="normal" in="SourceGraphic" in2="effect1_dropShadow_93_9343" result="shape"/>
</filter>
<filter id="filter3_d_93_9343" x="43.7441" y="0.554199" width="69.4697" height="53.0513" filterUnits="userSpaceOnUse" color-interpolation-filters="sRGB">
<feFlood flood-opacity="0" result="BackgroundImageFix"/>
<feColorMatrix in="SourceAlpha" type="matrix" values="0 0 0 0 0 0 0 0 0 0 0 0 0 0 0 0 0 0 127 0" result="hardAlpha"/>
<feOffset/>
<feGaussianBlur stdDeviation="5"/>
<feComposite in2="hardAlpha" operator="out"/>
<feColorMatrix type="matrix" values="0 0 0 0 1 0 0 0 0 1 0 0 0 0 1 0 0 0 0.25 0"/>
<feBlend mode="normal" in2="BackgroundImageFix" result="effect1_dropShadow_93_9343"/>
<feBlend mode="normal" in="SourceGraphic" in2="effect1_dropShadow_93_9343" result="shape"/>
</filter>
<filter id="filter4_d_93_9343" x="97.4678" y="1.09521" width="38.5864" height="45.1904" filterUnits="userSpaceOnUse" color-interpolation-filters="sRGB">
<feFlood flood-opacity="0" result="BackgroundImageFix"/>
<feColorMatrix in="SourceAlpha" type="matrix" values="0 0 0 0 0 0 0 0 0 0 0 0 0 0 0 0 0 0 127 0" result="hardAlpha"/>
<feOffset/>
<feGaussianBlur stdDeviation="5"/>
<feComposite in2="hardAlpha" operator="out"/>
<feColorMatrix type="matrix" values="0 0 0 0 1 0 0 0 0 1 0 0 0 0 1 0 0 0 0.25 0"/>
<feBlend mode="normal" in2="BackgroundImageFix" result="effect1_dropShadow_93_9343"/>
<feBlend mode="normal" in="SourceGraphic" in2="effect1_dropShadow_93_9343" result="shape"/>
</filter>
<linearGradient id="paint0_linear_93_9343" x1="53.7145" y1="20.2141" x2="46.3937" y2="12.5854" gradientUnits="userSpaceOnUse">
<stop offset="0.107494" stop-color="#1671E2"/>
<stop offset="0.910617" stop-color="#08E4D2"/>
</linearGradient>
<linearGradient id="paint1_linear_93_9343" x1="130.094" y1="36.8978" x2="117.101" y2="5.93616" gradientUnits="userSpaceOnUse">
<stop offset="0.107494" stop-color="#1671E2"/>
<stop offset="0.910617" stop-color="#08E4D2"/>
</linearGradient>
</defs>
</svg>
